<svg width="400" height="400" viewBox="0 0 400 400" fill="none" xmlns="http://www.w3.org/2000/svg" >
  <defs>
    <pattern id="colorfulDoodles" x="0" y="0" width="400" height="400" patternUnits="userSpaceOnUse">

      <!-- Blue Spiral -->
      <path d="M20 200 Q50 170 80 200 T140 200" stroke="#3a86ff" stroke-width="3" fill="none" />
      <path d="M25 210 Q50 185 75 210" stroke="#3a86ff" stroke-width="2" fill="none" />

      <!-- Teal leaf -->
      <path d="M280 100 C290 90 310 90 320 100 C310 110 290 110 280 100 Z" stroke="#00bfbf" stroke-width="2" fill="none" />
      <line x1="300" y1="100" x2="300" y2="110" stroke="#00bfbf" stroke-width="1.5" />

      <!-- Coral star -->
      <path d="M50 50 L60 80 L90 80 L65 100 L75 130 L50 110 L25 130 L35 100 L10 80 L40 80 Z" 
            stroke="#ff6f61" stroke-width="2" fill="none" />

      <!-- Orange smiley -->
      <circle cx="200" cy="320" r="25" stroke="#ff9f1c" stroke-width="2" fill="none" />
      <circle cx="190" cy="310" r="3" fill="#ff9f1c" />
      <circle cx="210" cy="310" r="3" fill="#ff9f1c" />
      <path d="M185 325 Q200 335 215 325" stroke="#ff9f1c" stroke-width="2" fill="none" />

      <!-- Light Blue stars -->
      <path d="M320 320 L330 350 L360 350 L335 370 L345 400 L320 380 L295 400 L305 370 L280 350 L310 350 Z" 
            stroke="#84c7ff" stroke-width="1.5" fill="none" />

      <!-- Teal squiggle -->
      <path d="M100 300 Q110 280 120 300 T140 300" stroke="#009999" stroke-width="2" fill="none" />
      <path d="M120 310 Q130 290 140 310 T160 310" stroke="#009999" stroke-width="2" fill="none" />

      <!-- Blue crosshatch -->
      <line x1="200" y1="40" x2="220" y2="60" stroke="#1c54b2" stroke-width="1.5" />
      <line x1="220" y1="40" x2="200" y2="60" stroke="#1c54b2" stroke-width="1.5" />

      <!-- Small teal circles -->
      <circle cx="70" cy="350" r="7" stroke="#00a1a1" stroke-width="1" fill="none" />
      <circle cx="110" cy="350" r="5" stroke="#00a1a1" stroke-width="1" fill="none" />
      <circle cx="150" cy="360" r="6" stroke="#00a1a1" stroke-width="1" fill="none" />

    </pattern>
  </defs>

  <rect width="400" height="400" fill="url(#colorfulDoodles)" />
</svg>
